<svg xmlns="http://www.w3.org/2000/svg" xmlns:xlink="http://www.w3.org/1999/xlink" width="427.866" height="144.284" style="display:inline"><defs><linearGradient id="b"><stop offset="0" style="stop-color:#f88000;stop-opacity:1"/><stop offset="1" style="stop-color:#ffd6a9;stop-opacity:.24038462"/></linearGradient><linearGradient id="a"><stop offset="0" style="stop-color:#f88000;stop-opacity:1"/><stop offset="1" style="stop-color:#ffd6a9;stop-opacity:1"/></linearGradient><linearGradient xlink:href="#a" id="e" x1="30.261" x2="30.261" y1="9.492" y2="94.087" gradientUnits="userSpaceOnUse"/><linearGradient xlink:href="#a" id="f" x1="77.45" x2="77.45" y1="15.007" y2="84.858" gradientUnits="userSpaceOnUse"/><linearGradient xlink:href="#a" id="g" x1="131.547" x2="134.948" y1="10.397" y2="92.902" gradientUnits="userSpaceOnUse"/><linearGradient xlink:href="#b" id="h" x1="190.864" x2="190.864" y1="20.013" y2="124.649" gradientUnits="userSpaceOnUse"/><linearGradient xlink:href="#a" id="i" x1="244.94" x2="244.94" y1="7.233" y2="91.993" gradientUnits="userSpaceOnUse"/><linearGradient id="c"><stop offset="0" style="stop-color:#f88000;stop-opacity:1"/><stop offset="1" style="stop-color:#ffd6a9;stop-opacity:1"/></linearGradient><linearGradient xlink:href="#c" id="j" x1="77.45" x2="77.45" y1="15.007" y2="84.858" gradientTransform="translate(220.802 -2.08)" gradientUnits="userSpaceOnUse"/><linearGradient xlink:href="#a" id="k" x1="353.239" x2="353.239" y1="8.877" y2="105.825" gradientUnits="userSpaceOnUse"/></defs><g style="display:inline"><path d="M39.135 19.322s-1.642-8.657 4.925-8.955 4.926 7.761 4.926 7.761l-.746 22.09s0 6.268-5.672 6.119-6.12-7.015-6.12-7.015-.895-5.373-2.388-8.955-4.477-7.314-4.477-7.314-2.388-1.492-4.18-.149c-1.79 1.343-3.134 6.12-3.134 6.12l-1.044 9.552s-.299 4.179 1.343 5.522c1.642 1.344 6.12 1.94 6.12 1.94-.159.08 7.689.634 10.746 1.493 2.244.631 12.835 1.791 14.179 16.567S41.97 82.755 41.97 82.755s-7.025 3.833-13.731 3.134c-8.165-.851-10.317-4.346-10.299-4.328l-.15 8.358s-1.79 3.88-5.522 4.03c-3.731.15-4.328-3.433-4.328-3.433l-.448-30.15s-.746-4.327 6.12-4.178 5.074 5.074 5.074 5.074l.597 5.224s2.24 9.851 10 10.299c7.761.448 13.433-5.075 13.433-5.075s2.537-7.761-1.045-11.492-11.79-4.18-11.79-4.18l-5.523-.298s-12.687-4.03-13.731-14.18c-1.04-10.1 2.388-19.402 2.388-19.402s2.248-9.698 14.477-8.806c10.229.746 11.03 6.269 11.642 5.97zM89.583 65.89s-.15-5.374 5.97-5.225 5.522 4.926 5.522 4.926l-.895 14.179s-3.284 18.657-21.94 18.06-23.583-9.702-23.732-17.015.15-24.776.15-24.776.48-5.317 2.387-9.403l2.09-4.478c1.059-2.269 6.453-5.716 6.567-5.373-.023-.093 2.636-1.646 13.135 0 6.545 1.026 7.462 4.776 7.462 4.776l.299-9.254s.895-3.88 5.074-3.88 5.523 1.194 5.672 4.179 0 18.955 0 18.955 0 3.88-5.672 3.88-6.567-4.179-6.567-4.179c-3.127-4.04-6.183-6.396-13.283-5.373-6.353.916-7.165 10.896-7.165 10.896s-2.686 15.522.747 24.776 12.836 7.015 12.836 7.015 11.343-.597 11.492-9.702c.15-9.104 0-12.686-.15-12.985z" style="fill:none;stroke:#fff;stroke-width:13.30000019;stroke-linecap:butt;stroke-linejoin:miter;stroke-miterlimit:4;stroke-opacity:1;stroke-dasharray:none;display:inline" transform="translate(11.313 11.451)"/><path d="M131.423 16.804c-9.311.031-26.469 1.625-26.469 1.625s-7.326 1.186-7.625 5.813c-.298 4.627 6.125 5.219 6.125 5.219l4.938-.282.593 17.313s-4.014.595-4.312 4.625 5.219 5.531 5.219 5.531l1.468 22.813-5.812.593s-5.375.905-5.375 5.532 5.812 4.625 5.812 4.625 18.519-1.633 20.907-3.125c2.388-1.493 4.496-3.429 3.75-6.563s-4.488-3.269-6.282-3.156c-3.019.19-3.063.655-3.093-.563-.17-6.675-.782-22.25-.782-22.25s3.432-2.558 5.97-1.812c2.536.746 6.993 1.502 9.53 8.219.743 1.966 1.93 7.03 2.282 8.968 1.541 8.51 1.61 15.69 5.5 19.094 4.776 4.18 5.07 3.719 9.25 3.719s10.757-3.557 12.25-7.438c1.492-3.88 1.922-7.184-1.063-9.125s-6.257-.575-7.75 1.813c-1.492 2.388-1.344 5.375-1.344 5.375s-3.682 5.883-6.437-7.188c-.765-3.628-.07-6.862-.25-9.093-.439-5.443-.778-7.071-1.688-9.563-1.11-3.042-4.789-9.83-5.218-9.687 0 0 10.454-3.598 10.156-15.688S141.67 18.13 136.298 17.086c-1.008-.196-2.726-.289-4.875-.282zm-11.531 9.532s7.161.139 11.937.437c4.776.299 8.348 2.71 9.094 7.188s-4.313 6.843-4.313 6.843c0 .166-7.178 1.87-8.82 1.64-1.626-.228-5.669 1.954-5.669 1.954l-1.636.313z" style="fill:none;stroke:#fff;stroke-width:13.30000019;stroke-linecap:butt;stroke-linejoin:miter;stroke-miterlimit:4;stroke-opacity:1;stroke-dasharray:none;display:inline" transform="translate(11.313 11.451)"/><path d="M187.392 8.93c-2.169-.024-4.997.517-8.72.843-8.507.746-16.1 1.332-14.905 7.75 1.194 6.418 16.875 0 16.875 0l-8.97 45.531h-11.5s-4.912 1.043-5.062 4.625c-.149 3.582 3.563 4.625 3.563 4.625s6.117.64 11.969 1.5c2.693.396 5.187-.033 7.312.282 6.264.927 5.223-.293 7.313-3.875s-2.25-4.782-2.25-4.782-1.333.152-.438-1.937c.896-2.09 17.594-3.719 17.594-3.719l2.687 10.75s-2.615 1.388-4.03 2.688c-4.046 3.714-1.345 7.312-1.345 7.312-.768.33 3.477 2.613 7.625.75 2.266-1.018 13.294-8.077 18.22-9.719 4.924-1.641 4.453-4.779 2.812-8.062-1.642-3.284-5.657-2.219-5.657-2.219s-3.295 1.195-4.937 2.688c-1.642 1.492-2.969-.907-2.969-.907s-17.167-43.568-19.406-49.687c-1.26-3.442-2.993-4.407-5.781-4.438zm1.28 23.968 7.938 17.156s-11.343 2.111-11.343 1.813 3.406-18.969 3.406-18.969z" style="fill:none;stroke:#fff;stroke-width:13.30000019;stroke-linecap:butt;stroke-linejoin:miter;stroke-miterlimit:4;stroke-opacity:1;stroke-dasharray:none;display:inline" transform="translate(11.313 11.451)"/><path d="m239.732 28.874.299 52.538-6.418.298s-5.672.597-5.672 4.926c0 4.328 4.627 5.223 4.627 5.223l26.12-.447s4.178-1.045 3.88-5.373-2.537-5.075-4.627-5.075-6.567-.299-6.567-.299l-.896-53.134s16.81.51 16.717-.895c-.063-.95-.84 12.09-.597 12.09 0 0-.597 3.88 5.373 3.88s5.97-5.97 5.97-5.97-.15-10.15.448-13.135c.628-3.142-.896-5.82-.896-5.82s-2.239-3.284-7.91-1.642-24.926 2.388-24.926 2.388-20.298-1.791-24.776-1.045c-4.477.746-6.865 1.045-7.76 4.03-.896 2.985 3.432 22.537 3.432 22.537s.298 5.672 4.328 5.373 5.523-.15 5.523-5.97-1.642-14.925-1.642-14.925zM310.384 63.809s-.149-5.374 5.97-5.224c6.12.149 5.523 4.925 5.523 4.925l-.896 14.18s-3.283 18.656-21.94 18.059-23.582-9.702-23.731-17.015.149-24.776.149-24.776.48-5.316 2.388-9.403l2.09-4.478c1.058-2.269 6.453-5.715 6.567-5.373-.024-.093 2.635-1.646 13.134 0 6.546 1.026 7.463 4.776 7.463 4.776l.298-9.254s.896-3.88 5.075-3.88 5.522 1.194 5.672 4.179 0 18.955 0 18.955 0 3.88-5.672 3.88-6.567-4.178-6.567-4.178c-3.127-4.042-6.184-6.397-13.284-5.373-6.352.915-7.164 10.895-7.164 10.895s-2.687 15.522.746 24.776 12.836 7.015 12.836 7.015 11.343-.597 11.493-9.701c.149-9.105 0-12.687-.15-12.985z" style="fill:none;stroke:#fff;stroke-width:13.30000019;stroke-linecap:butt;stroke-linejoin:miter;stroke-miterlimit:4;stroke-opacity:1;stroke-dasharray:none;display:inline" transform="translate(11.313 11.451)"/><path d="m343.118 83.64-.423-21.108s14.565-3.166 18.364-3.166h3.588l1.478 33.772s-5.277.844-8.232 1.9c-2.955 1.055-6.332 1.688-5.7 6.332.634 4.644 6.122 4.855 8.866 3.8s11.398-4.011 17.308-3.378 8.655-2.533 8.443-5.488c-.21-2.955-2.11-5.699-5.276-5.488-3.222.215-5.066.211-5.066.211L375.2 20.74s11.187.633 11.187-5.488-3.588-5.488-6.754-5.488h-18.786s-7.177.844-7.388 5.066c-.21 4.221 2.533 5.91 7.388 6.543s3.166 0 3.166 0l1.689 27.018-22.374 1.9-.211-23.641 5.91-.211s5.277-1.056 5.488-5.277c.21-4.222-3.8-5.7-6.333-5.7H327.92s-7.388.423-7.599 5.7c-.21 5.277 4.01 6.121 5.91 6.121s6.122.211 6.122.211l.21 56.147-7.176.21s-5.066.845-4.855 4.644 4.855 5.277 4.855 5.277h8.654s11.1 1.353 13.931 1.267c4.4-.134 6.04-1.786 6.122-5.488.084-3.805-5.066-5.277-6.544-5.277s-4.432-.633-4.432-.633z" style="fill:none;stroke:#fff;stroke-width:13.30000019;stroke-linecap:butt;stroke-linejoin:miter;stroke-miterlimit:4;stroke-opacity:1;stroke-dasharray:none;display:inline" transform="translate(11.313 11.451)"/><path d="M208.544 66.598c-2.533 4.643 2.11 6.332 2.11 6.332l3.589-4.01z" style="fill:#fff;stroke:#fff;stroke-width:1px;stroke-linecap:butt;stroke-linejoin:miter;stroke-opacity:1" transform="translate(11.313 11.451)"/></g><g style="display:inline"><path d="M38.806 18.955S37.164 10.3 43.731 10s4.926 7.761 4.926 7.761l-.747 22.09s0 6.268-5.671 6.12c-5.672-.15-6.12-7.016-6.12-7.016s-.895-5.373-2.388-8.955-4.477-7.313-4.477-7.313-2.388-1.493-4.18-.15c-1.79 1.344-3.134 6.12-3.134 6.12l-1.044 9.552s-.299 4.18 1.343 5.522c1.642 1.344 6.12 1.94 6.12 1.94-.159.08 7.688.634 10.745 1.493 2.245.631 12.836 1.791 14.18 16.567S41.642 82.388 41.642 82.388s-7.025 3.834-13.732 3.134c-8.164-.85-10.316-4.346-10.298-4.328l-.15 8.358s-1.79 3.88-5.522 4.03c-3.731.15-4.328-3.433-4.328-3.433L7.164 60s-.746-4.328 6.12-4.18c6.865.15 5.074 5.076 5.074 5.076l.597 5.223s2.239 9.851 10 10.299 13.433-5.075 13.433-5.075 2.537-7.76-1.045-11.492-11.79-4.18-11.79-4.18l-5.523-.298s-12.687-4.03-13.731-14.179c-1.04-10.1 2.388-19.403 2.388-19.403s2.248-9.698 14.477-8.806c10.229.746 11.03 6.269 11.642 5.97z" style="fill:url(#e);fill-opacity:1;stroke:#ffa749;stroke-width:1px;stroke-linecap:butt;stroke-linejoin:miter;stroke-opacity:1" transform="translate(11.313 11.451)"/><path d="M89.254 65.522s-.15-5.373 5.97-5.223c6.12.149 5.522 4.925 5.522 4.925l-.895 14.179s-3.284 18.657-21.94 18.06-23.583-9.702-23.732-17.015.15-24.776.15-24.776.48-5.317 2.387-9.403l2.09-4.478c1.059-2.269 6.453-5.716 6.567-5.373-.023-.093 2.636-1.646 13.134 0 6.546 1.026 7.463 4.776 7.463 4.776l.299-9.254s.895-3.88 5.074-3.88 5.523 1.194 5.672 4.179 0 18.955 0 18.955 0 3.88-5.672 3.88-6.567-4.178-6.567-4.178c-3.127-4.042-6.183-6.397-13.283-5.374-6.353.916-7.165 10.896-7.165 10.896s-2.686 15.522.747 24.776 12.835 7.015 12.835 7.015 11.344-.597 11.493-9.702c.15-9.104 0-12.686-.15-12.985z" style="fill:url(#f);fill-opacity:1;stroke:#ffa749;stroke-width:1px;stroke-linecap:butt;stroke-linejoin:miter;stroke-opacity:1" transform="translate(11.313 11.451)"/><path d="M131.094 16.438c-9.311.03-26.469 1.625-26.469 1.625S97.299 19.248 97 23.875s6.125 5.219 6.125 5.219l4.938-.282.593 17.313s-4.014.595-4.312 4.625 5.219 5.531 5.219 5.531l1.468 22.813-5.812.594s-5.375.904-5.375 5.53c0 4.628 5.812 4.626 5.812 4.626s18.518-1.633 20.906-3.125c2.389-1.493 4.497-3.428 3.75-6.563s-4.487-3.269-6.28-3.156c-3.02.19-3.064.655-3.094-.562-.17-6.676-.782-22.25-.782-22.25s3.432-2.56 5.969-1.813c2.537.746 6.994 1.502 9.531 8.219.743 1.966 1.93 7.03 2.281 8.968 1.542 8.51 1.61 15.69 5.5 19.094 4.777 4.18 5.071 3.719 9.25 3.719s10.758-3.557 12.25-7.437 1.923-7.185-1.062-9.126-6.257-.575-7.75 1.813S154.781 83 154.781 83s-3.682 5.883-6.437-7.187c-.765-3.63-.07-6.863-.25-9.094-.439-5.443-.778-7.071-1.688-9.563-1.11-3.042-4.789-9.83-5.219-9.687 0 0 10.455-3.598 10.157-15.688s-10.002-14.017-15.375-15.062c-1.008-.196-2.727-.289-4.875-.282zm-11.531 9.53s7.16.14 11.937.438c4.776.299 8.347 2.71 9.094 7.188s-4.313 6.843-4.313 6.843c0 .166-7.178 1.87-8.82 1.64-1.626-.228-5.669 1.954-5.669 1.954l-1.636.313z" style="fill:url(#g);fill-opacity:1;stroke:#ffa749;stroke-width:1px;stroke-linecap:butt;stroke-linejoin:miter;stroke-opacity:1" transform="translate(11.313 11.451)"/><path d="M187.063 8.563c-2.17-.024-4.997.517-8.72.843-8.507.747-16.1 1.332-14.905 7.75 1.194 6.418 16.875 0 16.875 0l-8.97 45.532h-11.5s-4.912 1.042-5.062 4.624c-.149 3.583 3.563 4.626 3.563 4.626s6.117.64 11.969 1.5c2.693.395 5.187-.034 7.312.28 6.264.929 5.223-.292 7.313-3.874s-2.25-4.781-2.25-4.781-1.334.152-.438-1.938 17.594-3.719 17.594-3.719l2.687 10.75s-2.615 1.388-4.031 2.688c-4.046 3.714-1.344 7.312-1.344 7.312-.768.33 3.477 2.614 7.625.75 2.266-1.017 13.294-8.077 18.219-9.719s4.454-4.778 2.813-8.062c-1.642-3.284-5.657-2.219-5.657-2.219s-3.295 1.195-4.937 2.688c-1.642 1.492-2.969-.907-2.969-.907S195.083 19.12 192.844 13c-1.26-3.442-2.993-4.407-5.781-4.437zm1.28 23.968 7.938 17.157s-11.344 2.11-11.344 1.812c0-.299 3.407-18.969 3.407-18.969z" style="fill:url(#h);fill-opacity:1;stroke:#ffa749;stroke-width:1px;stroke-linecap:butt;stroke-linejoin:miter;stroke-opacity:1" transform="translate(11.313 11.451)"/><path d="m239.403 28.507.298 52.538-6.417.298s-5.672.597-5.672 4.926c0 4.328 4.627 5.224 4.627 5.224l26.12-.448s4.178-1.045 3.88-5.373-2.538-5.075-4.627-5.075-6.567-.298-6.567-.298l-.896-53.135s16.81.51 16.717-.895c-.063-.95-.84 12.09-.597 12.09 0 0-.597 3.88 5.373 3.88s5.97-5.97 5.97-5.97-.15-10.15.448-13.135c.628-3.142-.896-5.82-.896-5.82s-2.239-3.284-7.91-1.642-24.926 2.388-24.926 2.388-20.298-1.791-24.776-1.045c-4.477.746-6.865 1.045-7.761 4.03s3.433 22.537 3.433 22.537.298 5.672 4.328 5.373 5.523-.149 5.523-5.97-1.642-14.925-1.642-14.925z" style="fill:url(#i);fill-opacity:1;stroke:#ffa749;stroke-width:1px;stroke-linecap:butt;stroke-linejoin:miter;stroke-opacity:1" transform="translate(11.313 11.451)"/><path d="M310.055 63.442s-.149-5.373 5.97-5.224c6.12.149 5.523 4.925 5.523 4.925l-.896 14.18s-3.283 18.656-21.94 18.059-23.582-9.702-23.731-17.015.149-24.776.149-24.776.48-5.316 2.388-9.403l2.09-4.478c1.058-2.269 6.453-5.715 6.567-5.373-.024-.093 2.635-1.646 13.134 0 6.546 1.026 7.463 4.776 7.463 4.776l.298-9.253s.896-3.881 5.075-3.881 5.522 1.194 5.671 4.18c.15 2.984 0 18.954 0 18.954s0 3.88-5.671 3.88-6.567-4.178-6.567-4.178c-3.127-4.041-6.184-6.397-13.284-5.373-6.352.915-7.164 10.895-7.164 10.895s-2.687 15.523.746 24.776 12.836 7.015 12.836 7.015 11.343-.597 11.493-9.701c.149-9.105 0-12.687-.15-12.985z" style="fill:url(#j);fill-opacity:1;stroke:#ffa749;stroke-width:1px;stroke-linecap:butt;stroke-linejoin:miter;stroke-opacity:1;display:inline" transform="translate(11.313 11.451)"/><path d="m342.788 83.273-.422-21.108s14.565-3.166 18.364-3.166h3.588l1.478 33.772s-5.277.844-8.232 1.9c-2.955 1.055-6.332 1.688-5.7 6.332.634 4.644 6.122 4.855 8.866 3.8s11.398-4.011 17.308-3.378 8.654-2.533 8.443-5.488c-.21-2.955-2.11-5.699-5.277-5.488-3.221.215-5.065.211-5.065.211l-1.267-70.288s11.187.633 11.187-5.488-3.588-5.488-6.754-5.488h-18.786s-7.177.844-7.388 5.066c-.21 4.221 2.533 5.91 7.388 6.543s3.166 0 3.166 0l1.689 27.018-22.374 1.9-.212-23.641 5.91-.211s5.278-1.055 5.489-5.277c.21-4.222-3.8-5.7-6.333-5.7h-20.263s-7.388.423-7.599 5.7c-.21 5.277 4.01 6.121 5.91 6.121s6.122.211 6.122.211l.21 56.147-7.176.21s-5.066.845-4.855 4.644 4.855 5.277 4.855 5.277h8.654s11.1 1.353 13.931 1.267c4.4-.134 6.04-1.785 6.121-5.488.085-3.804-5.065-5.277-6.543-5.277s-4.433-.633-4.433-.633z" style="fill:url(#k);fill-opacity:1;stroke:#ffa749;stroke-width:1px;stroke-linecap:butt;stroke-linejoin:miter;stroke-opacity:1" transform="translate(11.313 11.451)"/></g></svg>